<?xml version="1.0" standalone="no"?>
<!DOCTYPE svg PUBLIC "-//W3C//DTD SVG 20010904//EN"
 "http://www.w3.org/TR/2001/REC-SVG-20010904/DTD/svg10.dtd">
<svg version="1.0" xmlns="http://www.w3.org/2000/svg"
 width="132.000000pt" height="132.000000pt" viewBox="0 0 132.000000 132.000000"
 preserveAspectRatio="xMidYMid meet" fill="#00000A">

<g transform="translate(0.000000,132.000000) scale(0.100000,-0.100000)"
fill="#000000" stroke="none">
<path d="M0 660 l0 -660 660 0 660 0 0 660 0 660 -660 0 -660 0 0 -660z m1095
615 c15 -14 25 -36 25 -51 0 -37 -36 -74 -72 -74 -36 0 -78 40 -78 75 0 14 11
37 25 50 13 14 36 25 50 25 14 0 37 -11 50 -25z m-522 -242 c-7 -2 -21 -2 -30
0 -10 3 -4 5 12 5 17 0 24 -2 18 -5z m12 -204 c77 -36 275 -198 275 -225 0
-17 -5 -17 -33 -2 -15 8 -11 -1 15 -30 74 -82 13 -93 -149 -28 -66 26 -83 30
-78 17 15 -38 44 -166 38 -171 -3 -3 -8 0 -10 6 -4 12 -45 79 -108 175 -22 33
-61 83 -87 110 -40 42 -48 56 -48 88 0 37 24 71 60 84 23 8 80 -3 125 -24z"/>
</g>
</svg>
